<svg xmlns="http://www.w3.org/2000/svg" width="96.634" height="92.27" viewBox="0 0 96.634 92.27">
  <g id="Layer_2" data-name="Layer 2" transform="translate(0 -0.003)">
    <g id="Layer_1" data-name="Layer 1" transform="translate(0 0.003)">
      <path id="Path_57784" data-name="Path 57784" d="M96.634,46.136c0,4.755-9.023,8.027-10.414,12.317C84.775,62.9,90.1,70.841,87.407,74.559s-11.935,1.11-15.682,3.815S67.691,90.664,63.249,92.1C58.96,93.5,53.077,85.977,48.317,85.977S37.675,93.5,33.381,92.1C28.935,90.656,28.6,81.081,24.9,78.373S11.952,78.28,9.223,74.559s2.632-11.643,1.187-16.106C9.023,54.164,0,50.892,0,46.136s9.023-8.023,10.414-12.291c1.445-4.45-3.882-12.389-1.187-16.106S21.162,16.625,24.909,13.9,28.944,1.612,33.385.18C37.675-1.215,43.557,6.3,48.317,6.3S58.96-1.219,63.253.176C67.7,1.617,68.034,11.2,71.73,13.9S84.682,14,87.412,17.718,84.78,29.357,86.225,33.824C87.611,38.113,96.634,41.381,96.634,46.136Z" transform="translate(0 -0.003)" fill="#10b769"/>
      <path id="Path_57785" data-name="Path 57785" d="M74.988,101.393a4.213,4.213,0,0,0,3.145,1.361,4.408,4.408,0,0,0,3.149-1.361L104.848,76.04a4.285,4.285,0,1,0-6.29-5.82L78.133,92.192l-9.295-10a4.286,4.286,0,0,0-6.29,5.823Z" transform="translate(-35.381 -39.667)" fill="#fff"/>
    </g>
  </g>
</svg>
